<?xml version='1.0' encoding='iso-8859-1'?>
<!-- Uploaded to: SVG Repo, www.svgrepo.com, Generator: SVG Repo Mixer Tools -->
<svg fill="#000000" height="800px" width="800px" version="1.1" xmlns="http://www.w3.org/2000/svg" viewBox="0 0 463 463" xmlns:xlink="http://www.w3.org/1999/xlink" enable-background="new 0 0 463 463">
  <path d="m423.5,192c-6.975,0-22.521,2.791-49.396,7.724-31.78,5.834-73.526,13.494-103.726,15.672 22.894-19.813 57.827-43.914 84.422-62.26 22.496-15.518 35.464-24.538 40.395-29.47 7.461-7.46 11.57-17.379 11.57-27.931 0-10.551-4.109-20.47-11.569-27.93-7.46-7.461-17.38-11.57-27.931-11.57s-20.471,4.109-27.932,11.57c-4.931,4.931-13.949,17.896-29.464,40.388-18.347,26.597-42.45,61.533-62.265,84.429 2.178-30.199 9.839-71.945 15.672-103.724 4.933-26.877 7.724-42.424 7.724-49.398 0-21.78-17.72-39.5-39.5-39.5s-39.5,17.72-39.5,39.5c0,6.974 2.791,22.521 7.725,49.397 5.833,31.779 13.493,73.525 15.672,103.724-19.815-22.895-43.918-57.832-62.265-84.429-15.515-22.491-24.533-35.457-29.464-40.388-7.461-7.461-17.381-11.57-27.932-11.57s-20.471,4.109-27.93,11.57c-7.461,7.46-11.57,17.379-11.57,27.93 0,10.551 4.109,20.47 11.569,27.931 4.932,4.932 17.899,13.952 40.395,29.47 26.595,18.346 61.529,42.447 84.423,62.26-30.199-2.178-71.945-9.839-103.725-15.672-26.877-4.932-42.423-7.723-49.398-7.723-21.78,0-39.5,17.72-39.5,39.5s17.72,39.5 39.5,39.5c6.975,0 22.521-2.791 49.396-7.724 31.78-5.834 73.526-13.494 103.726-15.672-22.894,19.813-57.827,43.914-84.422,62.26-22.496,15.518-35.464,24.538-40.395,29.47-7.461,7.46-11.57,17.379-11.57,27.931 0,10.551 4.109,20.47 11.569,27.93 7.46,7.461 17.38,11.57 27.931,11.57s20.471-4.109 27.932-11.57c4.931-4.931 13.949-17.896 29.464-40.388 18.347-26.597 42.45-61.533 62.265-84.429-2.178,30.199-9.839,71.945-15.672,103.724-4.933,26.877-7.724,42.424-7.724,49.398 0,21.78 17.72,39.5 39.5,39.5s39.5-17.72 39.5-39.5c0-6.974-2.791-22.521-7.725-49.397-5.833-31.779-13.493-73.525-15.672-103.724 19.815,22.895 43.918,57.832 62.265,84.429 15.515,22.491 24.533,35.457 29.464,40.388 7.461,7.461 17.381,11.57 27.932,11.57s20.471-4.109 27.93-11.57c7.461-7.46 11.57-17.379 11.57-27.93 0-10.551-4.109-20.47-11.569-27.931-4.932-4.932-17.899-13.952-40.395-29.47-26.595-18.346-61.529-42.447-84.423-62.26 30.199,2.178 71.945,9.839 103.725,15.672 26.877,4.932 42.423,7.723 49.398,7.723 21.78,0 39.5-17.72 39.5-39.5s-17.72-39.5-39.5-39.5zm-167.5,39.5c0,0.169-0.009,0.336-0.013,0.505-0.16,0-0.328-0.005-0.487-0.005-3.758,0-6.861,2.766-7.406,6.372-2.166,2.935-1.928,7.087 0.729,9.745 0.11,0.11 0.229,0.224 0.341,0.335-0.233,0.243-0.47,0.48-0.713,0.713-0.11-0.111-0.224-0.23-0.334-0.34-2.658-2.657-6.809-2.895-9.744-0.731-3.606,0.545-6.373,3.648-6.373,7.406 0,0.159 0.004,0.327 0.005,0.487-0.168,0.003-0.335,0.013-0.505,0.013s-0.336-0.009-0.505-0.013c0-0.16 0.005-0.328 0.005-0.487 0-3.758-2.767-6.861-6.373-7.406-2.936-2.165-7.086-1.927-9.744,0.731-0.11,0.11-0.223,0.229-0.334,0.34-0.243-0.233-0.48-0.47-0.713-0.713 0.111-0.111 0.23-0.224 0.341-0.334 2.658-2.658 2.895-6.81 0.729-9.745-0.545-3.606-3.648-6.372-7.406-6.372-0.159,0-0.327,0.004-0.487,0.005-0.003-0.168-0.013-0.335-0.013-0.505s0.009-0.336 0.013-0.505c0.16,0 0.328,0.005 0.487,0.005 3.758,0 6.861-2.766 7.406-6.372 2.166-2.935 1.928-7.087-0.729-9.745-0.11-0.11-0.229-0.224-0.341-0.335 0.233-0.243 0.47-0.48 0.713-0.713 0.11,0.111 0.224,0.23 0.334,0.34 2.658,2.657 6.809,2.895 9.744,0.731 3.606-0.545 6.373-3.648 6.373-7.406 0-0.159-0.004-0.327-0.005-0.487 0.168-0.003 0.335-0.013 0.505-0.013s0.336,0.009 0.505,0.013c0,0.16-0.005,0.328-0.005,0.487 0,3.758 2.766,6.861 6.373,7.406 2.935,2.165 7.086,1.928 9.745-0.73 0.11-0.11 0.223-0.229 0.334-0.34 0.243,0.233 0.48,0.47 0.713,0.713-0.111,0.111-0.23,0.224-0.341,0.334-2.658,2.658-2.895,6.81-0.729,9.745 0.545,3.606 3.648,6.372 7.406,6.372 0.159,0 0.327-0.004 0.487-0.005 0.003,0.168 0.012,0.335 0.012,0.504zm66.216-114.79c12.62-18.294 23.519-34.093 27.725-38.299 4.627-4.627 10.78-7.176 17.324-7.176s12.696,2.549 17.324,7.176c4.627,4.627 7.176,10.78 7.176,17.324 0,6.544-2.549,12.697-7.177,17.324-4.206,4.207-20.008,15.107-38.306,27.729-26.997,18.624-62.461,43.09-86.097,63.599-0.51-0.539-1.034-1.064-1.573-1.573 20.51-23.637 44.978-59.103 63.604-86.104zm-115.216-77.21c0-13.509 10.99-24.5 24.5-24.5s24.5,10.991 24.5,24.5c0,5.949-3.466,24.829-7.478,46.689-5.92,32.255-13.696,74.625-15.908,105.839-0.371-0.01-0.74-0.028-1.114-0.028s-0.743,0.018-1.114,0.028c-2.213-31.214-9.988-73.584-15.908-105.839-4.012-21.86-7.478-40.74-7.478-46.689zm-128.589,73.56c-4.627-4.627-7.176-10.78-7.176-17.324 0-6.544 2.549-12.696 7.177-17.324 4.627-4.627 10.779-7.176 17.323-7.176s12.697,2.549 17.324,7.176c4.206,4.206 15.104,20.005 27.725,38.299 18.625,27 43.094,62.467 63.604,86.104-0.539,0.51-1.064,1.034-1.573,1.573-23.636-20.509-59.1-44.975-86.098-63.599-18.297-12.622-34.099-23.523-38.306-27.729zm7.777,135.462c-21.86,4.013-40.74,7.478-46.688,7.478-13.51,0-24.5-10.991-24.5-24.5s10.99-24.5 24.5-24.5c5.948,0 24.828,3.465 46.688,7.478 32.256,5.92 74.626,13.695 105.84,15.908-0.01,0.371-0.028,0.74-0.028,1.114s0.018,0.743 0.028,1.114c-31.214,2.213-73.584,9.988-105.84,15.908zm54.596,97.768c-12.62,18.294-23.519,34.093-27.725,38.299-4.627,4.627-10.78,7.176-17.324,7.176s-12.696-2.549-17.324-7.176c-4.627-4.627-7.176-10.78-7.176-17.324 0-6.544 2.549-12.697 7.177-17.324 4.206-4.207 20.008-15.107 38.306-27.729 26.997-18.624 62.461-43.09 86.097-63.599 0.51,0.539 1.034,1.064 1.573,1.573-20.51,23.637-44.978,59.103-63.604,86.104zm115.216,77.21c0,13.509-10.99,24.5-24.5,24.5s-24.5-10.991-24.5-24.5c0-5.949 3.466-24.829 7.478-46.689 5.92-32.255 13.696-74.625 15.908-105.839 0.371,0.01 0.74,0.028 1.114,0.028s0.743-0.018 1.114-0.028c2.213,31.214 9.988,73.584 15.908,105.839 4.012,21.86 7.478,40.74 7.478,46.689zm128.589-73.56c4.627,4.627 7.176,10.78 7.176,17.324 0,6.544-2.549,12.696-7.177,17.324-4.627,4.627-10.779,7.176-17.323,7.176s-12.697-2.549-17.324-7.176c-4.206-4.206-15.104-20.005-27.725-38.299-18.625-27-43.094-62.467-63.604-86.104 0.539-0.51 1.064-1.034 1.573-1.573 23.636,20.509 59.1,44.975 86.098,63.599 18.297,12.622 34.099,23.523 38.306,27.729zm38.911-93.94c-5.948,0-24.828-3.465-46.688-7.478-32.256-5.92-74.626-13.695-105.84-15.908 0.01-0.371 0.028-0.74 0.028-1.114s-0.018-0.743-0.028-1.114c31.214-2.213 73.584-9.988 105.84-15.908 21.86-4.013 40.74-7.478 46.688-7.478 13.51,0 24.5,10.991 24.5,24.5s-10.99,24.5-24.5,24.5z"/>
</svg>